# xmcd CD database file
#
# Track frame offsets:
#	150
#	23855
#	55214
#	86337
#	104527
#	124231
#	158882
#	185100
#	218840
#
# Disc length: 3241 seconds
#
# Revision: 0
# Processed by: cddbd v1.5.2PL0 Copyright (c) Steve Scherf et al.
# Submitted via: CDex 1.51
#
DISCID=7b0ca709
DTITLE=Double ZZ - Melting Pot
DYEAR=2009
DGENRE=Jazz
TTITLE0=Lefthanders
TTITLE1=Coolsteps 319.1417.2
TTITLE2=Rich
TTITLE3=PegaSus4
TTITLE4=Alap
TTITLE5=India
TTITLE6=Una Puesta Del Sol En Rojo Y Negro
TTITLE7=Cold Rain
TTITLE8=Always With Me, Always With You
EXTD=YEAR: 2009
EXTT0=
EXTT1=
EXTT2=
EXTT3=
EXTT4=
EXTT5=
EXTT6=
EXTT7=
EXTT8=
PLAYORDER=
